<svg height="496pt" viewBox="0 0 496.0099 496" width="496pt" xmlns="http://www.w3.org/2000/svg"><path d="m494.230469 449.699219-66.613281-212.824219c7.351562-4.109375 12.382812-11.871094 12.382812-20.871094 0-9.765625-5.890625-18.160156-14.28125-21.902344l20.136719-80.550781c1.421875-5.675781 2.144531-11.515625 2.144531-17.378906v-6.773437c0-19.578126-13.703125-35.945313-32-40.21875v-49.17578175h-16v48.54687475c-14.234375 2.269531-26.335938 11.75-31.824219 25.476563l-.175781.449218-.175781-.449218c-5.488281-13.726563-17.59375-23.207032-31.824219-25.476563v-48.54687475h-16v49.16796875c-18.296875 4.28125-32 20.640625-32 40.21875 0 10.335937 1.269531 20.671875 3.785156 30.71875l18.492188 73.992187c-8.390625 3.742188-14.277344 12.136719-14.277344 21.902344 0 9 5.03125 16.761719 12.382812 20.871094l-66.617187 212.824219c-4.421875 14.136719-.4375 29.371093 10.410156 39.761719.070313.070312.152344.144531.230469.207031 4.488281 4.199219 10.328125 6.304687 16.167969 6.304687 5.929687 0 11.855469-2.167968 16.367187-6.496094l3.179688-3.039062c2.878906-2.769531 7.734375-2.761719 10.613281-.007812l3.175781 3.046874c9.03125 8.65625 23.730469 8.65625 32.761719 0l3.167969-3.039062c2.878906-2.769531 7.734375-2.761719 10.617187-.007812l3.175781 3.046874c9.03125 8.65625 23.71875 8.65625 32.75 0l3.175782-3.046874c2.871094-2.753907 7.738281-2.753907 10.609375 0l3.175781 3.046874c9.023438 8.671876 23.71875 8.65625 32.75 0l3.175781-3.039062c2.882813-2.769531 7.738281-2.761719 10.617188-.007812l3.175781 3.046874c8.960938 8.585938 23.488281 8.648438 32.527344.207032.082031-.078125.167968-.152344.242187-.222656 10.839844-10.390626 14.832031-25.625 10.398438-39.761719zm-174.230469-225.695313c-4.410156 0-8-3.582031-8-8 0-4.414062 3.589844-8 8-8h96c4.40625 0 8 3.585938 8 8 0 4.417969-3.59375 8-8 8zm-16-134.605468c0-14 11.390625-25.394532 25.390625-25.394532 10.449219 0 19.695313 6.265625 23.578125 15.960938l7.605469 19.007812c1.21875 3.039063 4.152343 5.03125 7.425781 5.03125 3.269531 0 6.207031-1.992187 7.421875-5.03125l7.609375-19.007812c3.878906-9.695313 13.136719-15.960938 23.574219-15.960938 14 0 25.394531 11.394532 25.394531 25.394532v6.773437c0 4.554687-.5625 9.097656-1.664062 13.503906l-20.585938 82.328125h-83.503906l-18.941406-75.765625c-2.195313-8.777343-3.304688-17.808593-3.304688-26.839843zm-26.953125 385.476562-3.183594 3.050781c-2.878906 2.757813-7.726562 2.757813-10.601562 0-.054688-.058593-.117188-.113281-.175781-.167969-6.3125-6.160156-8.628907-15.058593-6.054688-23.28125l67.128906-214.472656h10.078125l-45.789062 228.945313c-4.179688.878906-8.152344 2.824219-11.402344 5.925781zm49.710937 0-3.167968 3.050781c-2.878906 2.75-7.734375 2.75-10.605469 0l-3.183594-3.058593c-1.640625-1.566407-3.511719-2.757813-5.464843-3.757813l46.222656-231.105469h9.441406v235.335938l-.488281-.464844c-9.015625-8.652344-23.710938-8.652344-32.753907 0zm96.257813 3.050781c-2.871094 2.765625-7.71875 2.75-10.601563 0l-3.183593-3.058593c-9.03125-8.636719-23.71875-8.644532-32.742188.007812l-.488281.464844v-235.335938h9.4375l46.226562 231.113282c-1.953124 1-3.824218 2.191406-5.464843 3.769531zm49.902344-.167969c-.0625.054688-.125.117188-.183594.167969-2.878906 2.742188-7.734375 2.742188-10.597656 0l-3.183594-3.058593c-3.242187-3.101563-7.226563-5.046876-11.402344-5.917969l-45.792969-228.945313h10.082032l67.128906 214.480469c2.566406 8.214844.253906 17.113281-6.050781 23.273437zm0 0"/><path d="m270.304688 196.925781c1.511718-1.9375 2.054687-4.472656 1.453124-6.855469l-32-128c-.605468-2.433593-2.308593-4.433593-4.605468-5.417968l-51.152344-21.917969v-26.730469c0-4.421875-3.585938-7.99999975-8-7.99999975h-80c-4.417969 0-8 3.57812475-8 7.99999975v26.730469l-51.152344 21.917969c-2.296875.984375-4 2.984375-4.609375 5.417968l-32 128c-.597656 2.390626-.054687 4.917969 1.457031 6.855469 1.511719 1.941407 3.839844 3.078125 6.304688 3.078125h40c3.527344 0 6.648438-2.320312 7.664062-5.703125l11.296876-37.648437 5.0625 75.878906c.273437 4.210938 3.769531 7.472656 7.976562 7.472656h112c4.207031 0 7.703125-3.261718 7.984375-7.472656l5.0625-75.878906 11.296875 37.648437c1.007812 3.382813 4.128906 5.703125 7.65625 5.703125h40c2.464844 0 4.792969-1.136718 6.304688-3.078125zm-134.304688-68.710937-28.648438-80.210938h57.296876zm-32-112.210938h64v16h-64zm-61.953125 168h-23.800781l28.554687-114.207031 4.292969-1.832031 12.570312 43.992187zm37.9375-72.527344c-.03125-.558593-.136719-1.121093-.289063-1.664062l-13.777343-48.214844 25.410156-10.890625 36.671875 102.683594v70.613281h-40.511719zm104.527344 112.527344h-40.511719v-70.613281l36.671875-102.683594 25.40625 10.890625-13.773437 48.207032.109374.03125c-.152343.535156-.367187 1.058593-.398437 1.632812zm45.441406-40-21.617187-72.054687 12.566406-43.992188 4.296875 1.839844 28.550781 114.207031zm0 0"/><path d="m192 256.003906h-112c-4.417969 0-8 3.578125-8 8v224c0 4.425782 3.582031 8 8 8h32c3.933594 0 7.289062-2.863281 7.902344-6.75l16.097656-101.953125 16.09375 101.953125c.617188 3.886719 3.96875 6.75 7.90625 6.75h32c4.414062 0 8-3.574218 8-8v-224c0-4.421875-3.585938-8-8-8zm-8 224h-17.167969l-22.9375-145.246094c-.605469-3.890624-3.960937-6.753906-7.894531-6.753906-3.9375 0-7.289062 2.863282-7.90625 6.753906l-22.925781 145.246094h-17.167969v-208h96zm0 0"/></svg>